<svg width="21" height="20" viewBox="0 0 21 20" fill="none" xmlns="http://www.w3.org/2000/svg">
<path d="M8.00002 17.5H4.83335C4.37502 17.5 3.98266 17.3368 3.65627 17.0104C3.32988 16.684 3.16669 16.2917 3.16669 15.8333V12.6667C3.83335 12.6667 4.41669 12.4549 4.91669 12.0312C5.41669 11.6076 5.66669 11.0694 5.66669 10.4167C5.66669 9.76389 5.41669 9.22569 4.91669 8.80208C4.41669 8.37847 3.83335 8.16667 3.16669 8.16667V5C3.16669 4.54167 3.32988 4.14931 3.65627 3.82292C3.98266 3.49653 4.37502 3.33333 4.83335 3.33333H8.16669C8.16669 2.75 8.36808 2.25694 8.77085 1.85417C9.17363 1.45139 9.66669 1.25 10.25 1.25C10.8334 1.25 11.3264 1.45139 11.7292 1.85417C12.132 2.25694 12.3334 2.75 12.3334 3.33333H15.6667C16.125 3.33333 16.5174 3.49653 16.8438 3.82292C17.1702 4.14931 17.3334 4.54167 17.3334 5V8.33333C17.9167 8.33333 18.4097 8.53472 18.8125 8.9375C19.2153 9.34028 19.4167 9.83333 19.4167 10.4167C19.4167 11 19.2153 11.4931 18.8125 11.8958C18.4097 12.2986 17.9167 12.5 17.3334 12.5V15.8333C17.3334 16.2917 17.1702 16.684 16.8438 17.0104C16.5174 17.3368 16.125 17.5 15.6667 17.5H12.5C12.5 16.8056 12.2813 16.2153 11.8438 15.7292C11.4063 15.2431 10.875 15 10.25 15C9.62502 15 9.09377 15.2431 8.65627 15.7292C8.21877 16.2153 8.00002 16.8056 8.00002 17.5Z" fill="#94A3B8"/>
</svg>
